<?xml version="1.0" standalone="no"?>
<!DOCTYPE svg PUBLIC "-//W3C//DTD SVG 20010904//EN"
 "http://www.w3.org/TR/2001/REC-SVG-20010904/DTD/svg10.dtd">
<svg version="1.0" xmlns="http://www.w3.org/2000/svg"
 width="1024.000000pt" height="1024.000000pt" viewBox="0 0 1024.000000 1024.000000"
 preserveAspectRatio="xMidYMid meet">

<g transform="translate(0.000000,1024.000000) scale(0.100000,-0.100000)"
fill="#000000" stroke="none">
<path d="M0 5120 l0 -5120 5120 0 5120 0 0 5120 0 5120 -5120 0 -5120 0 0
-5120z m6652 2201 c407 -88 665 -307 759 -646 10 -38 19 -79 18 -90 0 -11 -7
3 -14 30 -7 28 -13 46 -14 40 -1 -5 -5 -3 -11 5 -10 17 -20 10 -24 -16 -3 -22
-23 -30 -29 -12 -2 7 -3 0 -1 -15 23 -181 25 -212 15 -315 -22 -240 -81 -442
-196 -677 -139 -283 -321 -530 -615 -829 -96 -99 -160 -169 -142 -157 46 32
40 21 -10 -19 -24 -19 -37 -27 -29 -17 8 10 9 17 3 17 -12 0 -27 -19 -27 -35
0 -5 -6 -10 -13 -10 -7 0 -21 -9 -30 -21 -26 -32 -116 -102 -252 -199 -185
-130 -185 -130 -7 22 48 42 150 137 225 212 470 467 777 995 842 1446 13 92
13 286 -1 361 -60 340 -299 571 -692 668 -400 100 -956 21 -1548 -219 -274
-111 -631 -294 -834 -427 -77 -50 -33 -11 76 68 680 493 1372 785 2024 854
137 15 417 4 527 -19z m785 -813 c-2 -13 -4 -5 -4 17 -1 22 1 32 4 23 2 -10 2
-28 0 -40z m0 -230 c-3 -8 -6 -5 -6 6 -1 11 2 17 5 13 3 -3 4 -12 1 -19z m-10
-80 c-3 -8 -6 -5 -6 6 -1 11 2 17 5 13 3 -3 4 -12 1 -19z m-1447 -29 c8 -5
-63 -8 -165 -8 -99 -1 -367 -6 -596 -13 l-417 -12 -6 -320 c-4 -177 -11 -465
-16 -641 -6 -176 -11 -358 -12 -405 -5 -223 -16 324 -17 842 l-1 578 608 -6
c334 -4 614 -10 622 -15z m-1750 -220 c123 -56 178 -184 134 -314 -19 -55 -79
-120 -130 -141 l-34 -14 0 -425 0 -426 -127 -83 c-71 -46 -138 -88 -150 -95
-22 -11 -23 -17 -23 -130 l0 -119 -60 -13 -60 -13 0 -38 c0 -21 -4 -38 -10
-38 -6 0 -10 75 -10 204 l0 203 150 99 150 99 0 385 0 385 -56 29 c-229 120
-139 467 120 466 40 0 77 -8 106 -21z m-775 -571 c11 2 34 4 50 5 17 2 36 6
43 10 9 6 12 -14 12 -89 0 -76 -3 -94 -12 -87 -7 6 -36 11 -65 12 -42 1 -52
-2 -56 -16 -3 -10 -5 38 -5 107 1 69 3 109 7 90 5 -28 10 -34 26 -32z m-907
-125 c-52 -86 -118 -226 -151 -323 -45 -130 -60 -232 -54 -350 9 -183 64 -315
181 -438 127 -132 298 -217 521 -258 206 -38 599 -19 888 42 87 18 106 17 42
-3 -55 -16 -78 -31 -70 -44 7 -11 -44 -24 -190 -49 -355 -62 -698 -45 -937 44
-127 48 -192 90 -293 191 -99 98 -139 163 -176 285 -34 108 -34 327 -1 449 12
46 21 85 19 88 -6 6 -27 -56 -27 -80 0 -15 -3 -17 -13 -9 -11 9 -13 2 -10 -36
2 -33 0 -43 -6 -32 -8 11 -16 2 -35 -40 -33 -72 -56 -189 -66 -330 l-9 -115 4
135 c6 213 58 387 180 600 55 96 228 340 241 340 2 0 -15 -30 -38 -67z m4042
-447 c0 -2 -8 -10 -17 -17 -16 -13 -17 -12 -4 4 13 16 21 21 21 13z m-1823
-193 c-3 -10 -5 -2 -5 17 0 19 2 27 5 18 2 -10 2 -26 0 -35z m-1532 -300 c5
-181 4 -253 -4 -253 -8 0 -11 77 -11 257 0 141 2 254 4 252 2 -2 7 -118 11
-256z m-148 -85 c-2 -13 -4 -3 -4 22 0 25 2 35 4 23 2 -13 2 -33 0 -45z m-910
-30 c-3 -8 -6 -5 -6 6 -1 11 2 17 5 13 3 -3 4 -12 1 -19z m1250 -80 c-2 -13
-4 -3 -4 22 0 25 2 35 4 23 2 -13 2 -33 0 -45z m-1240 20 c-3 -8 -6 -5 -6 6
-1 11 2 17 5 13 3 -3 4 -12 1 -19z"/>
<path d="M4074 5830 c-56 -22 -85 -99 -59 -154 39 -81 137 -99 199 -37 26 27
31 39 31 82 0 46 -4 54 -37 85 -39 35 -86 44 -134 24z"/>
<path d="M2347 4961 c-9 -16 -17 -37 -16 -48 0 -10 9 0 21 25 23 51 20 65 -5
23z"/>
</g>
</svg>
